# xmcd
#
# Track frame offsets:
#	150
#	15412
#	35627
#	51457
#	65632
#	81000
#	98372
#	113047
#	127465
#	144135
#	163622
#
# Disc length: 2403 seconds
#
# Revision: 2
# Processed by: cddbd v1.4PL0 Copyright (c) Steve Scherf et al.
# Submitted via: CDmax 1.9
#
DISCID=8f09610b
DTITLE=Marty Brown - Here's To The Honky Tonks
DYEAR=1996
DGENRE=Country
TTITLE0=Here's To The Honky Tonks
TTITLE1=You Can't Wrap Your Arms Around A Memory
TTITLE2=Love Comes Easy
TTITLE3=The Day The Bootlegger Died
TTITLE4=Too Lonely Too Long
TTITLE5=He Thinks Daddy Hung The Moon
TTITLE6=Flip Side Of Love
TTITLE7=Somewhere Over Arkansas
TTITLE8=Laurie On My Mind
TTITLE9=There's No Song Like A Slow Song
TTITLE10=Behind Bars
EXTD=
EXTT0=
EXTT1=
EXTT2=
EXTT3=
EXTT4=
EXTT5=
EXTT6=
EXTT7=
EXTT8=
EXTT9=
EXTT10=
PLAYORDER=
